<svg width="40" height="31" viewBox="0 0 40 31" fill="none" xmlns="http://www.w3.org/2000/svg">
<path d="M7.86116 29.1845H3.11163C2.68015 29.1845 2.33038 29.5343 2.33038 29.9658C2.33038 30.3972 2.68015 30.747 3.11163 30.747H7.86109C8.29257 30.747 8.64234 30.3972 8.64234 29.9658C8.64234 29.5343 8.29257 29.1845 7.86116 29.1845Z" fill="black"/>
<path d="M12.1001 29.6672C11.9723 29.3551 11.6447 29.1576 11.3089 29.1879C10.9859 29.2172 10.7087 29.4508 10.6243 29.7636C10.5406 30.0743 10.6634 30.4134 10.9242 30.6009C11.1882 30.7907 11.556 30.7932 11.8232 30.6083C12.1218 30.4016 12.2399 30.0027 12.1001 29.6672V29.6672Z" fill="black"/>
<path d="M11.3929 25.271H1.75189C1.32041 25.271 0.970642 25.6208 0.970642 26.0522C0.970642 26.4837 1.32041 26.8335 1.75189 26.8335H11.3929C11.8244 26.8335 12.1742 26.4837 12.1742 26.0522C12.1742 25.6208 11.8244 25.271 11.3929 25.271Z" fill="black"/>
<path d="M8.3893 22.1387C8.3893 21.7072 8.03953 21.3574 7.60805 21.3574H0.78125C0.349766 21.3574 0 21.7072 0 22.1387C0 22.5702 0.349766 22.9199 0.78125 22.9199H7.60805C8.03953 22.9199 8.3893 22.5702 8.3893 22.1387Z" fill="black"/>
<path d="M39.0659 25.1743C38.9338 20.7452 35.2897 17.1829 30.8292 17.1829H26.8652L24.6102 3.6411C24.492 2.8268 24.0592 2.1143 23.3905 1.63391C22.7192 1.15172 21.902 0.969379 21.0895 1.12047C19.4331 1.42852 18.9773 1.49446 18.853 1.50633C18.6229 1.52836 18.4143 1.65118 18.2834 1.8418C18.1526 2.03235 18.1128 2.2711 18.1749 2.49383L18.3691 3.19024C16.95 3.02032 15.6506 2.24782 14.8256 1.03891L14.3483 0.340473C14.2227 0.156723 14.0247 0.0352392 13.804 0.0065673C13.5834 -0.0222608 13.3609 0.0446921 13.1924 0.190239L9.45658 3.41875C9.03798 3.73305 8.63345 4.14274 8.254 4.63665C8.25376 4.63688 8.25361 4.63719 8.25337 4.63743C7.19361 6.0136 6.27665 8.07555 5.74954 10.2432C5.17119 10.297 4.61212 10.5651 4.20423 11.0377L3.29962 12.0859C2.8929 12.5572 2.69454 13.1586 2.74111 13.7794C2.78767 14.4002 3.07345 14.9652 3.54595 15.3706L18.9343 28.5731C19.1952 28.7925 19.4671 28.9965 19.7486 29.1845H14.9248C14.4933 29.1845 14.1435 29.5343 14.1435 29.9658C14.1435 30.3973 14.4933 30.747 14.9248 30.747H37.6743C38.9567 30.747 40.0001 29.7037 40.0001 28.4213V27.0367C40.0001 26.2757 39.6327 25.5988 39.0659 25.1743V25.1743ZM23.9162 8.98547H21.6063L21.0313 6.92266H23.5727L23.9162 8.98547ZM24.1763 10.548L24.5369 12.7133H22.6452L22.0417 10.548H24.1763ZM24.7971 14.2758L25.3499 17.5958C25.1092 17.6668 24.8505 17.6636 24.598 17.582C24.1776 17.4461 23.8706 17.1234 23.7538 16.6906L23.0807 14.2758H24.7971ZM21.3752 2.65665C21.765 2.58407 22.1569 2.67157 22.4788 2.9029C22.8009 3.13422 23.009 3.4779 23.0647 3.87055C23.0656 3.8768 23.0665 3.88297 23.0676 3.88915L23.3125 5.36016H20.5959L19.916 2.92071C20.2557 2.8618 20.7245 2.77766 21.3752 2.65665V2.65665ZM10.457 4.61922L13.552 1.94454C14.7567 3.6929 16.7208 4.73883 18.814 4.78657L18.9738 5.36008H18.9275C18.496 5.36008 18.1463 5.70985 18.1463 6.14133C18.1463 6.57282 18.496 6.92258 18.9275 6.92258H19.4093L19.9842 8.98539H19.4765C19.045 8.98539 18.6952 9.33516 18.6952 9.76664C18.6952 10.1981 19.045 10.5479 19.4765 10.5479H20.4198L21.0233 12.7132H20.1015C19.67 12.7132 19.3202 13.063 19.3202 13.4945C19.3202 13.9259 19.67 14.2757 20.1015 14.2757H21.4588L22.247 17.1036C22.4986 18.0367 23.1978 18.7713 24.1174 19.0686C24.2467 19.1104 24.3774 19.1426 24.5088 19.1654L23.7476 20.2641C23.5019 20.6188 23.5902 21.1056 23.9449 21.3513C24.0806 21.4452 24.2356 21.4904 24.3891 21.4904C24.6367 21.4904 24.8802 21.373 25.032 21.154L26.7006 18.7453H30.8292C34.2708 18.7453 37.1126 21.3623 37.4693 24.7109H24.896C24.1428 24.7109 23.4098 24.4454 22.8312 23.9632L11.7242 14.4341C13.0424 13.3813 13.8282 11.7481 13.8282 9.9618C13.8282 8.59157 13.3338 7.26805 12.4359 6.23485C11.8567 5.56844 11.1351 5.05055 10.3335 4.71539C10.3594 4.695 10.3853 4.67516 10.4113 4.65594C10.427 4.6443 10.4423 4.63204 10.457 4.61922V4.61922ZM9.21064 5.97954C10.981 6.45555 12.2657 8.0925 12.2657 9.9618C12.2657 11.3722 11.6025 12.6467 10.5081 13.3907L7.47931 10.7922C7.40993 10.7327 7.3379 10.678 7.26384 10.628C7.69103 8.85946 8.39345 7.18321 9.21064 5.97954V5.97954ZM38.4376 28.4213C38.4376 28.8421 38.0952 29.1845 37.6743 29.1845H24.896C23.0856 29.1845 21.3256 28.5427 19.946 27.3823L4.56337 14.1848C4.40829 14.0517 4.31447 13.8663 4.29923 13.6626C4.28392 13.4588 4.34908 13.2614 4.48251 13.1068L5.38712 12.0586C5.53775 11.8841 5.75103 11.7945 5.96556 11.7945C6.14158 11.7945 6.31837 11.8548 6.46197 11.978L21.8178 25.1526C21.8203 25.1548 21.8229 25.157 21.8255 25.1591C22.6852 25.8777 23.7756 26.2734 24.896 26.2734H37.6743C38.0952 26.2734 38.4376 26.6159 38.4376 27.0367V28.4213Z" fill="black"/>
</svg>
